<?xml version="1.0" standalone="no"?>
<!DOCTYPE svg PUBLIC "-//W3C//DTD SVG 20010904//EN"
 "http://www.w3.org/TR/2001/REC-SVG-20010904/DTD/svg10.dtd">
<svg version="1.0" xmlns="http://www.w3.org/2000/svg"
 width="2316.000000pt" height="2316.000000pt" viewBox="0 0 2316.000000 2316.000000"
 preserveAspectRatio="xMidYMid meet">
<metadata>
Created by potrace 1.14, written by Peter Selinger 2001-2017
</metadata>
<g transform="translate(0.000000,2316.000000) scale(0.100000,-0.100000)"
fill="#000000" stroke="none">
<path d="M11198 23155 c-2 -2 -75 -6 -163 -9 -88 -4 -180 -8 -205 -11 -25 -2
-88 -6 -140 -10 -52 -3 -111 -8 -130 -10 -19 -2 -66 -6 -105 -10 -38 -3 -83
-8 -100 -10 -16 -2 -57 -7 -90 -10 -93 -9 -148 -16 -175 -20 -14 -3 -45 -7
-70 -10 -39 -5 -86 -12 -275 -40 -78 -12 -271 -46 -370 -66 -55 -10 -109 -21
-120 -23 -128 -25 -473 -106 -680 -160 -246 -65 -638 -188 -927 -291 -208 -75
-726 -284 -753 -305 -5 -4 -21 -11 -33 -15 -33 -10 -184 -81 -417 -196 -188
-92 -245 -122 -441 -229 -125 -68 -377 -216 -519 -304 -364 -225 -819 -546
-1111 -783 -39 -32 -86 -70 -105 -85 -38 -29 -64 -51 -219 -183 -58 -49 -118
-101 -135 -117 -16 -15 -41 -37 -55 -48 -195 -167 -653 -625 -915 -916 -94
-104 -325 -376 -385 -454 -19 -25 -37 -47 -40 -50 -10 -8 -227 -294 -301 -395
-178 -245 -331 -472 -484 -720 -54 -88 -105 -171 -114 -185 -9 -14 -21 -34
-27 -45 -6 -11 -47 -83 -91 -160 -205 -357 -396 -742 -589 -1192 -8 -18 -20
-48 -28 -65 -8 -18 -24 -58 -35 -88 -12 -30 -26 -64 -31 -75 -16 -34 -41 -98
-57 -145 -8 -25 -20 -56 -26 -70 -5 -14 -11 -29 -13 -35 -2 -5 -32 -91 -67
-190 -105 -293 -225 -682 -282 -915 -2 -8 -25 -100 -50 -205 -26 -104 -49
-201 -52 -215 -2 -14 -13 -63 -23 -110 -10 -47 -22 -101 -25 -120 -3 -19 -8
-42 -10 -50 -2 -8 -6 -31 -9 -50 -3 -19 -13 -71 -21 -115 -9 -44 -18 -96 -21
-115 -5 -33 -17 -110 -28 -175 -7 -40 -28 -184 -31 -215 -1 -14 -6 -50 -10
-80 -4 -30 -9 -68 -10 -85 -4 -42 -17 -146 -21 -170 -2 -11 -6 -53 -10 -95 -3
-41 -7 -91 -9 -110 -3 -31 -6 -68 -20 -255 -26 -355 -27 -1188 0 -1512 2 -32
7 -96 10 -143 9 -129 14 -201 20 -247 3 -24 7 -62 10 -85 2 -24 7 -63 10 -88
2 -25 7 -65 10 -90 3 -25 7 -61 10 -80 3 -19 7 -57 11 -85 3 -27 8 -63 10 -80
3 -16 7 -46 10 -65 4 -31 56 -340 69 -412 3 -16 7 -38 9 -50 50 -278 200 -901
265 -1098 10 -30 25 -80 34 -110 24 -83 164 -502 203 -610 88 -237 212 -539
336 -815 43 -95 263 -543 288 -585 5 -8 50 -91 102 -185 51 -93 101 -183 111
-200 9 -16 20 -38 23 -47 4 -10 10 -18 15 -18 5 0 9 -4 9 -10 0 -13 167 -286
287 -470 80 -122 188 -278 347 -504 35 -49 286 -376 301 -392 5 -6 21 -26 35
-44 14 -18 32 -41 42 -52 9 -10 31 -37 48 -58 17 -21 39 -48 48 -58 10 -11 33
-39 54 -63 45 -54 64 -77 136 -158 31 -35 65 -73 75 -85 255 -294 819 -841
1151 -1116 10 -8 23 -20 30 -25 14 -14 271 -221 316 -257 203 -156 430 -324
478 -353 9 -5 19 -12 22 -15 14 -14 381 -259 425 -284 17 -9 68 -41 115 -71
79 -50 151 -93 225 -135 17 -9 53 -30 80 -47 81 -48 150 -87 155 -88 3 0 25
-13 50 -27 77 -46 187 -103 425 -222 277 -138 333 -163 590 -273 110 -46 214
-91 230 -98 131 -58 921 -336 993 -348 9 -2 55 -15 102 -29 77 -24 338 -95
379 -103 9 -2 61 -15 116 -28 126 -32 435 -100 505 -111 19 -3 46 -8 60 -11
36 -9 418 -74 465 -80 22 -3 58 -7 80 -11 22 -3 54 -7 70 -9 17 -3 46 -7 65
-10 19 -2 60 -7 90 -10 30 -3 69 -8 85 -10 96 -12 127 -15 190 -20 39 -3 86
-7 105 -10 31 -4 76 -7 260 -20 377 -27 1138 -26 1520 0 134 10 206 15 245 19
22 3 76 7 120 11 44 3 89 7 100 9 11 2 52 7 90 11 39 3 84 8 100 10 17 3 82
12 145 20 63 9 130 18 149 21 19 2 46 6 60 9 14 2 85 14 156 25 313 51 756
147 1065 232 80 21 152 41 160 43 8 2 56 15 105 30 50 15 95 28 100 29 6 2 17
5 25 8 8 3 62 20 120 38 392 120 890 313 1345 520 762 347 1628 877 2282 1394
28 23 66 52 84 66 18 14 37 30 43 35 6 6 47 39 91 75 44 35 91 74 105 86 14
12 50 43 80 69 138 119 269 235 360 320 120 112 538 533 615 618 39 43 86 96
105 116 46 49 148 165 180 204 14 17 54 65 90 107 152 181 370 461 548 706 33
44 344 509 381 569 65 104 158 258 223 370 73 126 93 162 173 310 58 106 246
481 282 560 17 39 48 106 68 150 20 44 45 98 55 120 70 155 238 578 237 595 0
3 5 16 12 29 11 19 157 434 165 466 1 6 16 55 34 110 40 126 111 373 116 400
2 12 13 52 24 90 18 63 38 144 47 185 2 8 10 42 18 75 17 65 83 365 92 418 3
18 12 64 20 102 16 77 71 404 80 475 3 25 8 56 10 70 2 14 7 45 10 70 3 25 8
56 10 70 2 14 6 50 10 80 3 30 7 69 9 85 6 41 28 261 31 305 7 93 17 229 20
265 26 315 26 1180 0 1510 -2 28 -6 88 -10 135 -3 47 -7 101 -9 120 -2 19 -7
73 -10 120 -4 46 -9 93 -11 105 -2 11 -7 45 -10 75 -12 121 -44 362 -65 490
-5 30 -12 70 -15 88 -3 17 -7 47 -10 65 -6 36 -23 131 -29 162 -2 11 -14 72
-26 135 -12 63 -24 124 -26 135 -19 100 -117 506 -155 643 -11 40 -22 81 -24
90 -4 17 -14 51 -60 207 -27 91 -147 456 -205 620 -46 131 -192 496 -270 675
-219 500 -483 1006 -758 1450 -133 215 -406 622 -476 711 -12 14 -28 36 -36
49 -15 23 -51 71 -200 265 -74 97 -387 477 -436 530 -11 11 -53 58 -95 105
-138 156 -202 223 -434 455 -261 261 -439 427 -660 615 -27 23 -63 54 -80 68
-23 20 -277 224 -405 325 -27 22 -244 182 -300 222 -30 22 -57 42 -60 45 -3 3
-12 10 -21 15 -9 6 -124 82 -256 170 -132 88 -269 178 -304 200 -84 52 -411
245 -415 245 -1 0 -29 15 -61 34 -340 196 -893 458 -1363 646 -313 125 -914
328 -1109 376 -9 2 -119 31 -246 64 -126 33 -259 66 -295 74 -208 45 -317 68
-333 71 -45 9 -295 55 -322 59 -16 3 -73 12 -125 21 -52 9 -111 18 -130 20
-19 2 -64 8 -100 14 -59 9 -185 25 -285 36 -22 3 -60 7 -85 10 -56 6 -123 13
-220 21 -41 3 -93 7 -115 9 -22 2 -92 7 -155 11 -63 3 -137 8 -165 11 -59 4
-952 12 -957 8z m722 -1979 c107 -4 218 -8 245 -10 145 -11 243 -18 270 -21
147 -13 193 -17 215 -21 14 -2 50 -6 80 -9 30 -3 66 -8 80 -10 14 -3 48 -7 75
-11 28 -3 61 -7 75 -9 14 -2 48 -7 75 -10 28 -4 66 -11 85 -15 19 -5 57 -11
85 -15 41 -5 364 -67 415 -80 8 -2 50 -11 93 -20 496 -104 1197 -336 1752
-580 138 -60 593 -283 685 -336 30 -17 84 -47 120 -67 36 -19 81 -44 100 -55
19 -11 47 -28 62 -38 14 -11 29 -19 32 -19 3 0 56 -32 118 -70 62 -39 122 -76
133 -83 148 -91 559 -378 705 -492 36 -28 97 -75 135 -105 39 -29 72 -56 75
-59 3 -4 30 -26 60 -51 30 -25 57 -47 60 -50 3 -3 21 -18 40 -34 41 -34 149
-128 235 -206 33 -30 78 -70 99 -90 57 -51 399 -393 476 -475 71 -77 254 -283
340 -385 47 -56 78 -94 147 -180 6 -8 31 -40 56 -70 389 -489 793 -1136 1071
-1711 79 -165 95 -199 161 -344 154 -340 361 -923 470 -1327 8 -32 22 -84 31
-115 9 -32 18 -69 20 -83 3 -14 9 -41 15 -60 5 -19 21 -87 35 -150 14 -63 27
-122 29 -130 8 -35 57 -287 60 -305 2 -11 8 -49 14 -85 6 -36 13 -83 16 -105
3 -22 8 -51 10 -65 10 -55 21 -138 41 -300 11 -94 12 -103 18 -170 3 -36 8
-85 11 -110 9 -85 24 -311 31 -460 6 -144 6 -640 0 -780 -8 -167 -17 -322 -21
-360 -2 -19 -6 -71 -9 -115 -4 -44 -8 -96 -11 -115 -2 -19 -6 -60 -10 -90 -13
-123 -49 -395 -61 -454 -2 -11 -7 -41 -10 -66 -3 -25 -7 -52 -9 -60 -2 -8 -7
-31 -10 -50 -3 -19 -12 -66 -20 -105 -8 -38 -17 -85 -20 -103 -10 -61 -75
-357 -85 -387 -5 -16 -12 -45 -15 -64 -3 -19 -10 -41 -14 -50 -5 -9 -11 -33
-15 -53 -17 -95 -164 -573 -236 -768 -18 -47 -35 -96 -40 -110 -8 -28 -66
-178 -85 -225 -7 -16 -36 -86 -65 -155 -49 -119 -66 -157 -128 -294 -99 -219
-321 -645 -432 -831 -26 -44 -56 -94 -66 -112 -52 -89 -110 -178 -116 -181 -5
-2 -8 -8 -8 -12 0 -13 -237 -365 -339 -505 -178 -242 -472 -607 -606 -751 -5
-6 -53 -58 -105 -115 -173 -189 -480 -491 -655 -644 -44 -38 -84 -75 -90 -81
-5 -6 -41 -37 -80 -69 -38 -33 -75 -64 -81 -69 -43 -40 -284 -229 -444 -348
-218 -162 -750 -518 -774 -518 -3 0 -29 -15 -58 -34 -29 -18 -96 -57 -148 -86
-52 -29 -122 -68 -155 -87 -161 -89 -529 -267 -770 -373 -22 -9 -56 -25 -76
-34 -20 -8 -110 -44 -200 -79 -90 -35 -173 -68 -184 -72 -11 -5 -22 -9 -25
-10 -3 -1 -12 -4 -20 -7 -50 -19 -219 -77 -240 -83 -14 -3 -41 -12 -60 -20
-141 -55 -667 -199 -940 -256 -52 -11 -102 -22 -110 -24 -79 -19 -431 -82
-510 -91 -39 -4 -105 -14 -200 -29 -14 -2 -54 -6 -90 -10 -36 -3 -76 -8 -90
-10 -14 -2 -58 -7 -99 -10 -41 -4 -88 -8 -104 -10 -16 -2 -73 -7 -126 -11 -53
-3 -116 -8 -141 -9 -292 -21 -891 -21 -1195 0 -119 8 -211 15 -255 20 -25 2
-72 7 -105 10 -58 6 -99 10 -175 20 -108 13 -147 18 -160 20 -8 1 -40 6 -70
10 -30 3 -95 13 -145 21 -49 8 -103 17 -120 20 -38 6 -123 22 -155 29 -14 3
-41 8 -60 11 -19 3 -66 12 -105 21 -38 8 -79 16 -90 19 -53 11 -357 84 -409
98 -33 9 -67 18 -75 20 -9 2 -23 6 -31 9 -8 3 -51 15 -95 27 -44 12 -91 25
-105 30 -14 5 -86 27 -160 50 -74 23 -144 45 -155 50 -11 5 -63 23 -115 41
-52 17 -108 37 -125 44 -16 7 -97 39 -180 70 -82 32 -168 66 -190 76 -22 9
-87 38 -145 62 -530 227 -1105 548 -1627 906 -174 120 -529 389 -658 499 -11
9 -51 43 -90 76 -376 315 -738 678 -1123 1123 -51 59 -284 348 -329 409 -81
109 -199 273 -254 354 -35 52 -66 97 -69 100 -7 6 -43 61 -50 75 -3 6 -30 49
-60 96 -375 584 -678 1192 -921 1845 -96 261 -269 814 -294 941 -1 10 -8 38
-15 63 -7 25 -14 52 -15 60 -2 8 -13 57 -25 109 -11 52 -23 97 -25 101 -2 3
-7 29 -11 56 -3 27 -11 60 -16 74 -5 14 -9 25 -8 25 2 0 -12 91 -15 105 -2 8
-15 72 -19 100 -3 14 -7 39 -10 55 -3 17 -8 46 -11 65 -3 19 -12 80 -20 135
-32 213 -44 303 -60 480 -3 33 -8 76 -10 95 -4 32 -7 75 -20 269 -16 238 -22
734 -10 976 6 142 15 298 20 355 2 25 6 79 10 120 3 41 8 91 10 110 3 19 7 60
10 90 9 92 25 224 30 240 2 8 6 42 10 75 3 33 8 67 10 75 3 8 6 31 9 50 2 19
9 62 15 95 6 33 13 74 16 90 2 17 7 41 10 55 3 14 7 39 9 55 7 49 75 359 113
515 99 405 293 1007 409 1268 13 29 24 57 24 62 0 5 12 35 26 67 15 32 32 72
39 88 27 62 63 143 100 225 57 125 236 481 258 513 10 15 15 27 11 27 -4 0 0
8 8 18 8 9 34 53 58 97 161 301 538 876 745 1140 18 22 76 96 130 165 54 69
103 130 109 135 6 6 29 32 51 60 208 259 682 747 955 985 35 30 69 61 76 68
25 24 337 284 409 340 197 153 435 323 630 450 77 51 145 95 150 100 6 4 26
17 45 28 19 10 37 21 40 24 8 8 65 42 260 155 396 229 877 461 1270 612 63 24
124 48 135 53 81 36 688 236 778 256 19 4 26 6 107 28 116 31 340 86 450 110
111 24 140 30 205 41 17 3 37 8 45 10 8 2 29 6 45 9 17 3 71 12 120 20 50 9
108 18 130 21 22 3 51 8 65 11 14 2 43 7 65 9 22 3 51 7 65 10 33 6 91 13 168
20 35 4 72 8 83 10 11 2 52 7 92 10 39 3 88 8 107 10 19 2 78 7 130 10 52 4
115 8 140 10 25 3 144 7 265 11 121 3 221 7 222 8 3 3 260 -2 443 -8z"/>
<path d="M11438 13885 c-2 -1 -37 -5 -78 -9 -41 -3 -84 -8 -95 -10 -11 -2 -42
-7 -70 -10 -62 -9 -265 -60 -325 -81 -25 -9 -52 -18 -60 -20 -27 -5 -254 -105
-295 -129 -22 -13 -62 -36 -90 -51 -27 -16 -77 -46 -110 -68 -416 -280 -719
-663 -894 -1135 -29 -78 -56 -167 -67 -222 -3 -14 -9 -41 -14 -60 -10 -39 -16
-71 -26 -139 -4 -25 -8 -55 -10 -65 -21 -118 -21 -453 0 -586 5 -29 18 -124
18 -127 0 -2 6 -31 15 -65 8 -35 16 -70 18 -78 46 -209 179 -509 312 -706 99
-147 164 -227 292 -355 140 -140 221 -205 411 -329 24 -16 175 -101 178 -100
1 0 15 -6 30 -14 165 -85 457 -175 659 -202 26 -3 57 -8 68 -11 40 -9 432 -12
500 -3 39 5 90 11 115 15 25 3 56 7 70 10 14 3 34 7 45 9 363 71 736 252 1030
501 71 60 210 198 256 256 19 23 39 46 45 53 55 58 204 288 263 406 82 161
160 385 195 555 24 116 23 114 31 185 4 36 9 74 11 85 6 27 6 359 0 414 -25
238 -79 458 -161 659 -35 85 -120 257 -145 292 -11 15 -20 31 -20 34 0 8 -102
156 -144 211 -252 325 -594 582 -976 733 -106 42 -324 106 -402 117 -23 4 -45
8 -48 10 -3 2 -33 6 -65 10 -33 3 -76 9 -95 12 -36 5 -367 13 -372 8z"/>
</g>
</svg>
